<svg id="Layer_1" data-name="Layer 1" xmlns="http://www.w3.org/2000/svg" viewBox="0 0 1920 389.79"><defs><style>.cls-1{fill:#353332;}.cls-2{font-size:349.59px;fill:#fff;font-family:Manrope-Bold, Manrope;font-weight:700;letter-spacing:-0.03em;}.cls-3{letter-spacing:-0.04em;}.cls-4{fill:#26a9e0;}</style></defs><path class="cls-1" d="M157.45,219.66a1.45,1.45,0,0,1,2,0Z" transform="translate(-3.33 47.36)"/><text class="cls-2" transform="translate(308.24 300.65)">sh<tspan class="cls-3" x="390.48" y="0">o</tspan><tspan x="590.8" y="0">wboat</tspan></text><path class="cls-4" d="M179.4,252c-20,0-30.81-9.63-38.68-16.65-6.67-5.94-10.69-9.53-20-9.53s-13.35,3.59-20,9.53C92.82,242.33,82,252,62,252s-30.8-9.63-38.68-16.65c-6.66-5.94-10.68-9.53-20-9.53V197.73c20,0,30.81,9.62,38.68,16.65,6.66,5.94,10.68,9.53,20,9.53s13.35-3.59,20-9.53c7.87-7,18.66-16.65,38.68-16.65s30.8,9.62,38.68,16.65c6.66,5.94,10.68,9.53,20,9.53s13.35-3.59,20-9.53c7.88-7,18.66-16.65,38.68-16.65v28.05c-9.33,0-13.35,3.59-20,9.53C210.2,242.33,199.42,252,179.4,252Z" transform="translate(-3.33 47.36)"/><path class="cls-4" d="M179.4,183.74c-20,0-30.81-9.63-38.68-16.65-6.67-5.94-10.69-9.53-20-9.53s-13.35,3.59-20,9.53c-7.88,7-18.66,16.65-38.68,16.65s-30.8-9.63-38.68-16.65c-6.66-5.94-10.68-9.53-20-9.53V129.51c20,0,30.81,9.62,38.68,16.65,6.66,5.94,10.68,9.53,20,9.53s13.35-3.59,20-9.53c7.87-7,18.66-16.65,38.68-16.65s30.8,9.62,38.68,16.65c6.66,5.94,10.68,9.53,20,9.53s13.35-3.59,20-9.53c7.88-7,18.66-16.65,38.68-16.65v28.05c-9.33,0-13.35,3.59-20,9.53C210.2,174.11,199.42,183.74,179.4,183.74Z" transform="translate(-3.33 47.36)"/><polygon class="cls-4" points="234.76 47.36 234.76 149.71 132.4 149.71 234.76 47.36"/></svg>