<svg id="Layer_1" data-name="Layer 1" xmlns="http://www.w3.org/2000/svg" viewBox="0 0 512 512"><defs><style>.cls-1{fill:#2b3990;}.cls-2{fill:#00aeef;}.cls-3{fill:#fff;}</style></defs><circle class="cls-1" cx="256" cy="256" r="256"/><path class="cls-2" d="M342.79,374.4H325.72a33.13,33.13,0,0,1-31-44.81h0a33.14,33.14,0,0,1,31-21.44H438.39l-75.1,59.15A33.13,33.13,0,0,1,342.79,374.4Z"/><path class="cls-2" d="M440.87,286.25,290.09,137.6l9.85,96.4a58.17,58.17,0,0,0,57.87,52.25Z"/><path class="cls-3" d="M192.62,138.69c46.3,0,75.7,25.66,76.95,66.95h-40c-.94-19.71-15-31.28-37.54-31.28-24.71,0-40.67,11.88-40.67,31,0,16.26,8.76,25.33,27.85,29.71l36,7.83c39.1,8.44,58.19,28.46,58.19,62.56,0,42.54-33.16,70.07-83.53,70.07-48.8,0-80.71-26-81.65-66.94h40c.31,19.39,16,31,41.6,31,26.59,0,43.48-11.58,43.48-30.66,0-15.33-7.82-24.4-26.59-28.47l-36.28-8.13c-38.79-8.45-59.13-30.66-59.13-65.69C111.28,166.54,144.44,138.69,192.62,138.69Z"/></svg>